<svg id="Layer_1" data-name="Layer 1" xmlns="http://www.w3.org/2000/svg" viewBox="0 0 48 48"><defs><style>.cls-1{fill:#5092e1;}</style></defs><title>Artboard 1</title><path class="cls-1" d="M46.62,24.36a1.35,1.35,0,0,0-.65-.13,2.26,2.26,0,0,1-.33,0,.59.59,0,0,1-.33-.14.83.83,0,0,0-.71-.16c-.48.1-.43.5-.4.71a1.39,1.39,0,0,1,0,.41,1.31,1.31,0,0,0,0,.4,2.08,2.08,0,0,1,0,.43,1.48,1.48,0,0,0,0,.47,1.21,1.21,0,0,1,0,.38,1,1,0,0,1-.2.23,1.19,1.19,0,0,0-.35.47.94.94,0,0,0,.08.6.74.74,0,0,1,.07.32c0,.11-.07.23-.11.34a3,3,0,0,1-.15.45.72.72,0,0,1-.26.18,1.11,1.11,0,0,0-.46.4,1.78,1.78,0,0,1-.23.28,1.85,1.85,0,0,0-.29.33,1.53,1.53,0,0,1-.26.31,2.23,2.23,0,0,0-.26.27.84.84,0,0,0-.06.68,1.7,1.7,0,0,0,0,.26c-.07.06-.13.14-.2.21a2.68,2.68,0,0,1-.32.34,4.44,4.44,0,0,1-.63.39,1.35,1.35,0,0,1-.26-.09,1,1,0,0,0-.59-.13,1.61,1.61,0,0,1-.45,0h-.22l-.26-.08a1.38,1.38,0,0,0-.39-.12,1,1,0,0,0-.5.08.93.93,0,0,1-.29.06,5.84,5.84,0,0,1-.73-.21,1.14,1.14,0,0,1-.29-.17,1.82,1.82,0,0,0-.36-.22.92.92,0,0,0-.57,0,.76.76,0,0,1-.32,0,.82.82,0,0,1-.15-.23,1.19,1.19,0,0,0-.33-.45l-.27-.18c-.12-.08-.25-.16-.38-.26a1.47,1.47,0,0,0-.39-.21,1.2,1.2,0,0,1-.32-.17l-.31-.31-.26-.25a1,1,0,0,1-.14-.27,1.63,1.63,0,0,0-.27-.45,2.18,2.18,0,0,0-.34-.26,1.79,1.79,0,0,1-.3-.22,1.77,1.77,0,0,0-.39-.3,1.24,1.24,0,0,1-.28-.19,1.07,1.07,0,0,1-.13-.3,1.15,1.15,0,0,0-.26-.47l-.34-.33c-.08-.08-.17-.15-.25-.24l-.35-.3-.27-.24a1.24,1.24,0,0,0-.49-.24,1,1,0,0,1-.28-.13,1.11,1.11,0,0,1-.05-.31.9.9,0,0,0-.21-.62c-.2-.18-.49-.12-.77-.06l-.3.06a1.19,1.19,0,0,1-.05-.32.86.86,0,0,0-.21-.67,1.75,1.75,0,0,0-.45-.23,1.19,1.19,0,0,1-.3-.15.94.94,0,0,0-.63-.12.88.88,0,0,1-.29,0,.83.83,0,0,1-.12-.28.89.89,0,0,0-.32-.53,3.91,3.91,0,0,0-.44-.26l-.27-.15A2.62,2.62,0,0,0,24,22.1L23.68,22l-.29-.2a2.8,2.8,0,0,0-.41-.25,1.41,1.41,0,0,0-.52-.1,1.23,1.23,0,0,1-.31,0,.9.9,0,0,1-.25-.21,1.2,1.2,0,0,0-.43-.33,1.86,1.86,0,0,0-.51-.08,1.51,1.51,0,0,1-.32,0l-.32-.14a1.79,1.79,0,0,0-.45-.19,2.19,2.19,0,0,1-.33-.12,1.81,1.81,0,0,0-.43-.15l.18,0a1.25,1.25,0,0,0,.48-.15.88.88,0,0,0,.41-.41.41.41,0,0,1,.19-.2.39.39,0,0,1,.28,0,.87.87,0,0,0,.59-.07c.19-.1.28-.17.38-.23a1.21,1.21,0,0,1,.31-.19.8.8,0,0,0,.4-.46c.05-.1.07-.15.17-.2a2.79,2.79,0,0,1,.33-.14,2,2,0,0,0,.42-.16L24,17.5a1,1,0,0,1,.31-.1,1.21,1.21,0,0,0,.47-.14c.08,0,.13,0,.26,0a.75.75,0,0,0,.64,0,.77.77,0,0,0,.4-.51c0-.13.06-.18.14-.22a2,2,0,0,0,.38-.24,2.64,2.64,0,0,1,.31-.19c.06,0,.1,0,.25.06a.79.79,0,0,0,.7.05.82.82,0,0,0,.4-.45c.05-.11.07-.16.17-.21a1,1,0,0,0,.41-.37A.51.51,0,0,1,29,15c.07,0,.12,0,.26,0a.75.75,0,0,0,1.06-.44c0-.1.07-.16.17-.21a.43.43,0,0,1,.27,0,.88.88,0,0,0,.57-.07.85.85,0,0,0,.4-.41.34.34,0,0,1,.19-.2,2.37,2.37,0,0,1,.34-.15l.4-.17a1.45,1.45,0,0,0,.39-.28.84.84,0,0,1,.28-.19.36.36,0,0,1,.27,0,.87.87,0,0,0,.59-.07.83.83,0,0,0,.4-.43.37.37,0,0,1,.18-.21c.06,0,.11,0,.25,0a.74.74,0,0,0,.69,0,2.51,2.51,0,0,0,.37-.21,1.71,1.71,0,0,1,.33-.19l.37-.21.33-.19a.75.75,0,0,0,.38-.57c0-.15,0-.19.11-.23s.11,0,.26.06a.75.75,0,0,0,.7,0,1.5,1.5,0,0,0,.33-.22.29.29,0,0,1,.16-.1.65.65,0,0,0,.44,0l.12,0a.76.76,0,0,1,.14.21.78.78,0,0,0,.44.45,1,1,0,0,0,.56-.07,1.16,1.16,0,0,1,.26-.06,1.78,1.78,0,0,0,.56-.12l.21-.07a1,1,0,0,0,.45-.28.73.73,0,0,1,.18-.14.64.64,0,0,1,.25,0,.77.77,0,0,0,.62-.14,3,3,0,0,0,.5-.67.79.79,0,0,0,0-.62.85.85,0,0,1,0-.24.92.92,0,0,1,.2-.17c.18-.14.41-.31.41-.57s-.24-.43-.43-.57a1.37,1.37,0,0,1-.2-.16.91.91,0,0,1,0-.25.81.81,0,0,0,0-.61,4.25,4.25,0,0,0-.52-.64,2.79,2.79,0,0,0-.59-.4l-.09,0A1.47,1.47,0,0,0,42.05,5L41.8,5A2.57,2.57,0,0,0,41,4.82a1.22,1.22,0,0,0-.53.15l-.21.08A.83.83,0,0,1,40,5a.79.79,0,0,0-.67-.05,1.07,1.07,0,0,0-.36.51,1.06,1.06,0,0,1-.12.24,3.08,3.08,0,0,0-.5.63,1.91,1.91,0,0,0-.2.58l0,.18a1.17,1.17,0,0,0,0,.53,1.36,1.36,0,0,1,0,.17h0A.53.53,0,0,0,38,8a.28.28,0,0,1-.18,0,1,1,0,0,0-.49.12.8.8,0,0,0-.4.4.46.46,0,0,1-.19.2.36.36,0,0,1-.27,0,.8.8,0,0,0-.59.06,2.06,2.06,0,0,0-.37.21l-.33.19a2.51,2.51,0,0,0-.37.21,2.65,2.65,0,0,1-.32.19,2.24,2.24,0,0,1-.34.14l-.39.17a1.08,1.08,0,0,1-.32.12,2,2,0,0,0-.43.16.8.8,0,0,0-.4.46.32.32,0,0,1-.16.2,1.16,1.16,0,0,0-.39.29.83.83,0,0,1-.26.19.3.3,0,0,1-.26,0,.78.78,0,0,0-.61,0,3.57,3.57,0,0,0-.37.22,2.41,2.41,0,0,1-.32.18,1.08,1.08,0,0,1-.32.12,2,2,0,0,0-.43.16.84.84,0,0,0-.4.4.41.41,0,0,1-.19.2.79.79,0,0,0-.39.47c0,.11-.06.16-.15.2a.33.33,0,0,1-.27,0,.89.89,0,0,0-.57.08l-.34.16-.38.17a.8.8,0,0,0-.4.44c-.05.1-.07.15-.17.2a.33.33,0,0,1-.26,0,.88.88,0,0,0-.57.07,3.57,3.57,0,0,0-.37.22,1.74,1.74,0,0,1-.31.19.36.36,0,0,1-.27,0,.88.88,0,0,0-.57.07.64.64,0,0,1-.3.08,1,1,0,0,0-.49.12,1.21,1.21,0,0,0-.4.32.57.57,0,0,1-.23.19,1.35,1.35,0,0,0-.4.3.67.67,0,0,1-.25.19,1,1,0,0,1-.31.1,1.17,1.17,0,0,0-.46.14,3.57,3.57,0,0,0-.37.22,2.15,2.15,0,0,1-.31.18c-.19.09-.27.14-.36.19s-.17.1-.34.18a.77.77,0,0,0-.39.49c0,.12-.07.16-.15.21a2.32,2.32,0,0,1-.32.12,2,2,0,0,0-.43.16c-.28.14-.38,0-.79.18-.17.09-.26.12-.35.16l-.37.17c-.17.09-.26.12-.35.16l-.38.17a.54.54,0,0,1-.3.08,1.45,1.45,0,0,0-.48.14,3.57,3.57,0,0,0-.37.22,2,2,0,0,1-.31.19,1,1,0,0,0-.38.36.74.74,0,0,1-.09.12,2.44,2.44,0,0,0-.77-.27,1.1,1.1,0,0,0-.64.1l-.23.08a.83.83,0,0,1-.3,0,.83.83,0,0,0-.68.1,2.38,2.38,0,0,0-.59.8,1.09,1.09,0,0,0,.06.77l0,.1-.22,0a1.21,1.21,0,0,0-.73,0,1,1,0,0,0-.39.54.74.74,0,0,1-.14.27,1.7,1.7,0,0,1-.36.11,2,2,0,0,0-.46.14,1.06,1.06,0,0,1-.35.08,1.15,1.15,0,0,0-.5.12,1.61,1.61,0,0,0-.4.32,1.22,1.22,0,0,1-.26.22,1.64,1.64,0,0,0-.41.31,1.24,1.24,0,0,1-.27.21,2.14,2.14,0,0,0-.41.29,1.47,1.47,0,0,1-.28.2.69.69,0,0,1-.33,0,.91.91,0,0,0-.63,0l-.54.27a.82.82,0,0,0-.35,0l-.14,0-.18-.12a.78.78,0,0,0-.52-.25H3.09a2.48,2.48,0,0,0-.86.1c-.26.11-.3.41-.34.66a1.2,1.2,0,0,1,0,.26.81.81,0,0,1-.26.07c-.23,0-.52.09-.62.35s.06.48.2.67a.9.9,0,0,1,.14.24,1,1,0,0,1-.15.24c-.15.2-.33.43-.23.69a.86.86,0,0,0,.57.39.67.67,0,0,1,.24.11l.09.09a1.64,1.64,0,0,0,.54.41.7.7,0,0,0,.58-.07.55.55,0,0,1,.22-.07,1.48,1.48,0,0,0,.81-.2,1,1,0,0,1,.37,0c.3.05.64.1.83-.15a1.2,1.2,0,0,0,.11-.79,2.29,2.29,0,0,1,0-.25,1.62,1.62,0,0,0,.25-.28.88.88,0,0,1,.24-.26l.34-.14a3.2,3.2,0,0,0,.43-.17,1.54,1.54,0,0,1,.37-.09h0a1.66,1.66,0,0,1-.12.32,1.37,1.37,0,0,1-.21.21,1.24,1.24,0,0,0-.35.37c0,.06-.14.12-.23.18a1.12,1.12,0,0,0-.42.39.88.88,0,0,0,0,.64.7.7,0,0,1,.06.28c-.06.14-.11.29-.16.43l-.12.31c0,.05-.13.12-.21.18a1,1,0,0,0-.41.42,1.05,1.05,0,0,1-.17.28,2.1,2.1,0,0,0-.24.42.9.9,0,0,0,.12.64,1.34,1.34,0,0,1,.1.27c-.05.15-.09.3-.13.45l-.09.3a1,1,0,0,1-.23.17.86.86,0,0,0-.44.46.81.81,0,0,0,.16.63,1.37,1.37,0,0,1,.12.26c0,.14-.08.29-.11.44s-.05.21-.07.31a2.32,2.32,0,0,0-.06.44,1.86,1.86,0,0,1,0,.34,2.13,2.13,0,0,1-.11.33,2.12,2.12,0,0,0-.14.4.71.71,0,0,1-.24.19.88.88,0,0,0-.43.48,1,1,0,0,0,.11.58.63.63,0,0,1,.08.26.77.77,0,0,1-.15.28,1.14,1.14,0,0,0-.22.44,1,1,0,0,0,.2.63.7.7,0,0,1,.12.22c0,.05-.18.17-.26.23s-.35.26-.38.46,0,.2,0,.29c-.07.31-.15.7.3.91l.26.13a2,2,0,0,0,.75.26h.12a.78.78,0,0,0,.59-.32c.11-.12.18-.19.3-.2h.08c.11,0,.23,0,.3-.16l0-.16-.06-.12s0-.07,0-.22a1.18,1.18,0,0,0-.07-.45.78.78,0,0,1-.06-.36c0-.12,0-.25,0-.38a1.93,1.93,0,0,1,0-.41.9.9,0,0,1,.17-.2.78.78,0,0,0,.23-1,.8.8,0,0,1-.07-.28A1,1,0,0,1,5.36,37a.92.92,0,0,0,.48-.49,2.22,2.22,0,0,0,0-.44,1.32,1.32,0,0,1,0-.35.9.9,0,0,0-.1-.56,1.34,1.34,0,0,1-.08-.26A1.47,1.47,0,0,1,6,34.78c.23-.1.48-.22.55-.46a1,1,0,0,0-.1-.58c0-.08-.09-.23-.07-.27a1.13,1.13,0,0,0,0-.55.91.91,0,0,1-.05-.27,1.2,1.2,0,0,1,.28-.14c.23-.09.49-.2.56-.43A.84.84,0,0,0,7,31.42c0-.09-.12-.23-.13-.25A1.1,1.1,0,0,1,7.09,31a.85.85,0,0,0,.54-.4c0-.12.08-.24.12-.36s.08-.25.13-.37A1.29,1.29,0,0,0,8,29.44.9.9,0,0,1,8,29.13a1.37,1.37,0,0,0,.1-.47,1.19,1.19,0,0,1,.07-.31,5.05,5.05,0,0,1,.25-.45l.13-.23a.88.88,0,0,1,.24-.17,1,1,0,0,0,.41-.33A1.31,1.31,0,0,1,9.47,27a1.52,1.52,0,0,0,.33-.3.86.86,0,0,0,0-.69c0-.1-.05-.25-.05-.28a.7.7,0,0,1,.28-.09,1,1,0,0,0,.52-.23,1,1,0,0,0,.17-.62c0-.09,0-.25,0-.27a.92.92,0,0,1,.32,0,.85.85,0,0,0,.67-.09,1.3,1.3,0,0,0,.31-.54,1.21,1.21,0,0,1,.05-.14l0,.05c.15.2.32.42.56.45a.81.81,0,0,0,.58-.24.62.62,0,0,1,.22-.14,1,1,0,0,0,.58-.46,1.37,1.37,0,0,1,.15-.21,1,1,0,0,1,.33-.09.85.85,0,0,0,.64-.3.76.76,0,0,0,.25-.3l.06-.1c.22,0,.46-.05.69-.06a1.33,1.33,0,0,0,.34-.05,2.47,2.47,0,0,1,.36,0,1.67,1.67,0,0,0,.38,0,1.28,1.28,0,0,1,.31,0,1,1,0,0,1,.19.27c.14.22.28.46.53.5a.92.92,0,0,0,.6-.21,1.76,1.76,0,0,1,.26-.14,1,1,0,0,1,.18.23.92.92,0,0,0,.46.43.87.87,0,0,0,.66-.19,1.43,1.43,0,0,1,.28-.14,1.23,1.23,0,0,1,.27.19,1.91,1.91,0,0,0,.4.28l.37.13a2.58,2.58,0,0,1,.39.14,1,1,0,0,1,.12.25.94.94,0,0,0,.36.53l.31.16.38.2a1.61,1.61,0,0,1,.28.24,3,3,0,0,0,.33.27.91.91,0,0,0,.69,0,1.17,1.17,0,0,1,.31-.06,1,1,0,0,1,.21.26,1.87,1.87,0,0,0,.33.37,1.54,1.54,0,0,1,.24.26,2.33,2.33,0,0,0,.31.32,1.19,1.19,0,0,1,.15.26,1.12,1.12,0,0,0,.29.47,1.43,1.43,0,0,0,.37.23,1.65,1.65,0,0,1,.31.2l.29.28.27.28.29.29a3.5,3.5,0,0,0,.27.28,2.09,2.09,0,0,1,.22.28,2.42,2.42,0,0,0,.27.36l.28.26.31.28a1,1,0,0,0,.53.23.66.66,0,0,1,.29.1,1.15,1.15,0,0,0,.45.26,1.11,1.11,0,0,1,.25.14,1.43,1.43,0,0,1,.19.27,1.83,1.83,0,0,0,.26.38,1.86,1.86,0,0,1,.23.26,2.89,2.89,0,0,0,.29.32.85.85,0,0,1,.11.28,1,1,0,0,0,.25.49,4.73,4.73,0,0,0,.39.28l.26.18a.91.91,0,0,0,.62.12.93.93,0,0,1,.25,0,.83.83,0,0,1,.09.29.83.83,0,0,0,.3.58,1.12,1.12,0,0,0,.56.11.69.69,0,0,1,.27,0,1.27,1.27,0,0,1,.25.19,1.33,1.33,0,0,0,.42.3.85.85,0,0,0,.64-.11.63.63,0,0,1,.25-.09c.05,0,.14.12.2.19a.87.87,0,0,0,.48.36A.91.91,0,0,0,37.8,35a.83.83,0,0,1,.27-.1,2,2,0,0,0,.54,0h.26a.73.73,0,0,1,.27.11,1,1,0,0,0,.57.16,4.41,4.41,0,0,0,.65-.16l.17-.05a1.45,1.45,0,0,1,.3-.06,2.19,2.19,0,0,0,.53-.14.86.86,0,0,0,.39-.49.79.79,0,0,1,.14-.25.93.93,0,0,1,.28-.08,1.1,1.1,0,0,0,.53-.19l.11-.09a5.43,5.43,0,0,0,.51-.46l.26-.19a1.77,1.77,0,0,0,.4-.34.9.9,0,0,0,.14-.57,1,1,0,0,1,0-.28.84.84,0,0,1,.24-.14.88.88,0,0,0,.48-.35.86.86,0,0,0,0-.61,1,1,0,0,1,0-.28.78.78,0,0,1,.2-.22,1.07,1.07,0,0,0,.32-.4,1.42,1.42,0,0,0,.1-.48,2,2,0,0,1,.06-.3c0-.05.14-.13.22-.18a.9.9,0,0,0,.41-.43.92.92,0,0,0,0-.57.71.71,0,0,1,0-.27,1.31,1.31,0,0,0,0-.52.87.87,0,0,1,0-.28.83.83,0,0,1,.24-.19c.19-.12.39-.25.43-.47s.07-.38.09-.55l0-.23c0-.09,0-.16.05-.23C47.05,24.78,47.06,24.55,46.62,24.36Z"/></svg>