<svg width="41px" height="30px" viewBox="0 0 41 30" version="1.1" xmlns="http://www.w3.org/2000/svg">
    <g id="🚩-Landing-Page" stroke="none" stroke-width="1" fill="none" fill-rule="evenodd">
        <g id="00-Icons8-menu-\-Desktop" transform="translate(-217.000000, -583.000000)">
            <g id="Group-3" transform="translate(24.000000, 24.000000)">
                <g id="Icons" transform="translate(189.000000, 552.000000)">
                    <g id="icons8-lunacy" transform="translate(4.000000, 7.000000)">
                        <path d="M15,28.25 C14.5,28.25 14,28.1625 14,27.2875 L14,23.875 C14,23.35 13.6,23 13,23 C12.4,23 12,23.35 12,23.875 L12,27.2875 C12,28.95 13.2,30 15,30 L15,28.25 Z" id="Path" fill="#78909C"></path>
                        <path d="M10,28.25 C9.5,28.25 9,28.1625 9,27.2875 L9,23.875 C9,23.35 8.6,23 8,23 C7.4,23 7,23.35 7,23.875 L7,27.2875 C7,28.95 8.2,30 10,30 L10,28.25 Z" id="Path" fill="#78909C"></path>
                        <rect id="Rectangle" fill="#546E7A" x="12" y="22" width="2" height="2"></rect>
                        <rect id="Rectangle" fill="#546E7A" x="7" y="22" width="2" height="2"></rect>
                        <path d="M29,28.25 C28.5,28.25 28,28.1625 28,27.2875 L28,23.875 C28,23.35 27.6,23 27,23 C26.4,23 26,23.35 26,23.875 L26,27.2875 C26,28.95 27.2,30 29,30 L29,28.25 Z" id="Path" fill="#78909C"></path>
                        <path d="M24,28.25 C23.5,28.25 23,28.1625 23,27.2875 L23,23.875 C23,23.35 22.6,23 22,23 C21.4,23 21,23.35 21,23.875 L21,27.2875 C21,28.95 22.2,30 24,30 L24,28.25 Z" id="Path" fill="#78909C"></path>
                        <rect id="Rectangle" fill="#546E7A" x="26" y="22" width="2" height="2"></rect>
                        <rect id="Rectangle" fill="#546E7A" x="21" y="22" width="2" height="2"></rect>
                        <polygon id="Path" fill="#84FFFF" points="41 10 26.6141199 0 24 6.86909091"></polygon>
                        <polygon id="Path" fill="#00E5FF" points="27 0 2 5.92307692 0 11 24.456 6.39353846"></polygon>
                        <polygon id="Path" fill="#00B0FF" points="41 9.15963303 24 6 25.5156552 16"></polygon>
                        <polygon id="Path" fill="#0091EA" points="0 11.812279 24.5210752 7 26 16.6351655 1.00266091 18"></polygon>
                        <polygon id="Path" fill="#1976D2" points="41 10 26 16.3908571 31.0457894 22"></polygon>
                        <polygon id="Path" fill="#0D47A1" points="1 17.4156479 25.931 16 31 22 5 22"></polygon>
                    </g>
                </g>
            </g>
        </g>
    </g>
</svg>
