<svg width="36px" height="40px" viewBox="0 0 36 40" version="1.1" xmlns="http://www.w3.org/2000/svg">
    <g id="🚩-Landing-Page" stroke="none" stroke-width="1" fill="none" fill-rule="evenodd">
        <g id="00-Icons8-menu-\-Desktop" transform="translate(-426.000000, -580.000000)">
            <g id="Group-3" transform="translate(24.000000, 24.000000)">
                <g id="photos" transform="translate(396.000000, 552.000000)">
                    <g id="icons8-icons8_logo" transform="translate(6.000000, 4.000000)">
                        <path d="M4,40 C3.4,40 3,39.6 3,39 C3,38.4 3.4,38 4,38 C4.5,38 5,37.9 5,36.9 L5,33 C5,32.4 5.4,32 6,32 C6.6,32 7,32.4 7,33 L7,36.9 C7,38.8 5.8,40 4,40 Z" id="Path" fill="#78909C"></path>
                        <path d="M34.7,11 C34.9,10.4 35,9.7 35,9 C35,5.7 32.3,3 29,3 C27.3,3 25.8,3.7 24.7,4.9 C23.8,2 21.1,0 18,0 C14.8,0 12.2,2.1 11.3,5 C10.4,4.4 9.2,4 8,4 C4.7,4 2,6.7 2,10 C2,10.3 2,10.7 2.1,11 L34.7,11 Z" id="Path" fill="#CFD8DC"></path>
                        <polygon id="Path" fill="#32C24D" points="0 9 36 9 36 31 0 31"></polygon>
                        <path d="M20,20 C20,21.1 19.1,22 18,22 C16.9,22 16,21.1 16,20 C16,18.9 16.9,18 18,18 C19.1,18 20,18.9 20,20 Z" id="Path" fill="#FFFFFF"></path>
                        <path d="M28,20 C28,21.1 27.1,22 26,22 C24.9,22 24,21.1 24,20 C24,18.9 24.9,18 26,18 C27.1,18 28,18.9 28,20 Z" id="Path" fill="#FFFFFF"></path>
                        <path d="M12,20 C12,21.1 11.1,22 10,22 C8.9,22 8,21.1 8,20 C8,18.9 8.9,18 10,18 C11.1,18 12,18.9 12,20 Z" id="Path" fill="#FFFFFF"></path>
                        <rect id="Rectangle" fill="#546E7A" x="5" y="31" width="2" height="2"></rect>
                        <path d="M10,40 C9.4,40 9,39.6 9,39 C9,38.4 9.4,38 10,38 C10.5,38 11,37.9 11,36.9 L11,33 C11,32.4 11.4,32 12,32 C12.6,32 13,32.4 13,33 L13,36.9 C13,38.8 11.8,40 10,40 Z" id="Path" fill="#78909C"></path>
                        <rect id="Rectangle" fill="#546E7A" x="11" y="31" width="2" height="2"></rect>
                        <path d="M23,40 C22.4,40 22,39.6 22,39 C22,38.4 22.4,38 23,38 C23.5,38 24,37.9 24,36.9 L24,33 C24,32.4 24.4,32 25,32 C25.6,32 26,32.4 26,33 L26,36.9 C26,38.8 24.8,40 23,40 Z" id="Path" fill="#78909C"></path>
                        <rect id="Rectangle" fill="#546E7A" x="24" y="31" width="2" height="2"></rect>
                        <path d="M29,40 C28.4,40 28,39.6 28,39 C28,38.4 28.4,38 29,38 C29.5,38 30,37.9 30,36.9 L30,33 C30,32.4 30.4,32 31,32 C31.6,32 32,32.4 32,33 L32,36.9 C32,38.8 30.8,40 29,40 Z" id="Path" fill="#78909C"></path>
                        <rect id="Rectangle" fill="#546E7A" x="30" y="31" width="2" height="2"></rect>
                    </g>
                </g>
            </g>
        </g>
    </g>
</svg>
