<?xml version="1.0" encoding="UTF-8"?>
<svg width="80px" height="32px" viewBox="0 0 80 32" version="1.1" xmlns="http://www.w3.org/2000/svg">
    <g stroke="none" stroke-width="1" fill-rule="evenodd">
        <path d="M11.172,28.448 C9.15598992,28.448 7.36867446,28.018671 5.81,27.16 C4.25132554,26.301329 3.03800434,25.1113409 2.17,23.59 C1.30199566,22.0686591 0.868,20.337343 0.868,18.396 C0.868,16.4359902 1.30199566,14.6906743 2.17,13.16 C3.03800434,11.6293257 4.25132554,10.4393376 5.81,9.59 C7.36867446,8.74066242 9.15598992,8.316 11.172,8.316 C13.1880101,8.316 14.9753255,8.74066242 16.534,9.59 C18.0926745,10.4393376 19.3059957,11.6246591 20.174,13.146 C21.0420043,14.6673409 21.476,16.4173234 21.476,18.396 C21.476,20.337343 21.0420043,22.0686591 20.174,23.59 C19.3059957,25.1113409 18.0880078,26.301329 16.52,27.16 C14.9519922,28.018671 13.1693433,28.448 11.172,28.448 Z M11.172,23.352 C12.3480059,23.352 13.3139962,22.8946712 14.07,21.98 C14.8260038,21.0653288 15.204,19.8613408 15.204,18.368 C15.204,17.3786617 15.0313351,16.4966705 14.686,15.722 C14.3406649,14.9473295 13.8600031,14.3406689 13.244,13.902 C12.6279969,13.4633311 11.9280039,13.244 11.144,13.244 C10.3786628,13.244 9.68800308,13.4633311 9.072,13.902 C8.45599692,14.3406689 7.98000168,14.9473295 7.644,15.722 C7.30799832,16.4966705 7.14,17.3786617 7.14,18.368 C7.14,19.8613408 7.5133296,21.0653288 8.26,21.98 C9.0066704,22.8946712 9.97732736,23.352 11.172,23.352 Z M30.848,27.224 C29.373326,27.224 28.0620057,26.9626693 26.914,26.44 C25.7659943,25.9173307 24.8746698,25.1800048 24.24,24.228 C23.6053302,23.2759952 23.288,22.1933394 23.288,20.98 L23.288,12.972 L29.056,12.972 L29.056,20.896 C29.056,21.5120031 29.2286649,21.9926649 29.574,22.338 C29.9193351,22.6833351 30.3533307,22.856 30.876,22.856 C31.3800025,22.856 31.7953317,22.6833351 32.122,22.338 C32.4486683,21.9926649 32.612,21.5120031 32.612,20.896 L32.612,12.972 L38.268,12.972 L38.268,20.98 C38.268,22.2120062 37.9553365,23.2993286 37.33,24.242 C36.7046635,25.1846714 35.8320056,25.9173307 34.712,26.44 C33.5919944,26.9626693 32.3040073,27.224 30.848,27.224 Z M47.9,27.224 C46.4066592,27.224 45.0860057,26.9206697 43.938,26.314 C42.7899943,25.7073303 41.8940032,24.8533388 41.25,23.752 C40.6059968,22.6506612 40.284,21.400007 40.284,20 C40.284,18.6559933 40.6199966,17.4333388 41.292,16.332 C41.9640034,15.2306612 42.8786609,14.3626698 44.036,13.728 C45.1933391,13.0933302 46.4813262,12.776 47.9,12.776 C49.7106757,12.776 51.1386614,13.1493296 52.184,13.896 L51.652,17.62 C50.5879947,17.3026651 49.7106701,17.144 49.02,17.144 C48.1239955,17.144 47.4146693,17.4006641 46.892,17.914 C46.3693307,18.4273359 46.108,19.1226623 46.108,20 C46.108,20.8773377 46.3693307,21.5773307 46.892,22.1 C47.4146693,22.6226693 48.105329,22.884 48.964,22.884 C49.7106704,22.884 50.587995,22.7253349 51.596,22.408 L52.128,26.328 C51.4933302,26.6453349 50.8493366,26.8739993 50.196,27.014 C49.5426634,27.1540007 48.7773377,27.224 47.9,27.224 Z M54.2,8.548 L60.108,7.68 L60.108,15.856 C60.5186687,14.8666617 61.1393292,14.1060027 61.97,13.574 C62.8006708,13.0419973 63.8039941,12.776 64.98,12.776 C66.772009,12.776 68.1766616,13.4153269 69.194,14.694 C70.2113384,15.9726731 70.72,17.741322 70.72,20 L70.72,27 L64.84,27 L64.84,19.412 C64.84,18.6093293 64.6673351,17.9933355 64.322,17.564 C63.9766649,17.1346645 63.4960031,16.92 62.88,16.92 C62.4319978,16.92 61.9933355,17.0646652 61.564,17.354 C61.1346645,17.6433348 60.784668,18.058664 60.514,18.6 C60.243332,19.141336 60.108,19.7573299 60.108,20.448 L60.108,27 L54.2,27 L54.2,8.548 Z M72.724,12.5352074 L72.724,7.57520738 L79.476,7.57520738 L79.476,12.5352074 L78.228,21.5912074 L74.004,21.5912074 L72.724,12.5352074 Z M76.116,29.8472074 C74.9853277,29.8472074 74.1000032,29.5378771 73.46,28.9192074 C72.8199968,28.3005376 72.5,27.5218787 72.5,26.5832074 C72.5,25.6232026 72.8306634,24.8445437 73.492,24.2472074 C74.1533366,23.6498711 75.0279946,23.3512074 76.116,23.3512074 C77.182672,23.3512074 78.0466634,23.6658709 78.708,24.2952074 C79.3693366,24.9245439 79.7,25.6872029 79.7,26.5832074 C79.7,27.5858791 79.3906698,28.3805378 78.772,28.9672074 C78.1533302,29.553877 77.2680058,29.8472074 76.116,29.8472074 Z"></path>
    </g>
</svg>
