<?xml version="1.0" encoding="UTF-8"?>
<svg width="24px" height="24px" viewBox="0 0 24 24" version="1.1" xmlns="http://www.w3.org/2000/svg">
    <g id="Search-icon" stroke="none" stroke-width="1" fill-rule="evenodd">
        <path d="M17.3198574,14.9056439 L22.7071068,20.2928932 L21.2928932,21.7071068 L15.9056439,16.3198574 C14.5509601,17.3729184 12.8487115,18 11,18 C6.581722,18 3,14.418278 3,10 C3,5.581722 6.581722,2 11,2 C15.418278,2 19,5.581722 19,10 C19,11.8487115 18.3729184,13.5509601 17.3198574,14.9056439 Z M11,16 C14.3137085,16 17,13.3137085 17,10 C17,6.6862915 14.3137085,4 11,4 C7.6862915,4 5,6.6862915 5,10 C5,13.3137085 7.6862915,16 11,16 Z" id="Shape" fill-rule="nonzero"></path>
    </g>
</svg>
