<svg id="Layer_1" data-name="Layer 1" xmlns="http://www.w3.org/2000/svg" viewBox="0 0 48 48"><defs><style>.cls-1{fill:#5092e1;}</style></defs><title>Artboard 2</title><path class="cls-1" d="M44.38,15.12c-.12-.51-.8-.72-1.09-.79s-.66.21-.83.44a1,1,0,0,0-.09.13.94.94,0,0,1-.28.22,1.73,1.73,0,0,0-.35.29l-.29.27c-.07.07-.15.14-.29.29a1.7,1.7,0,0,1-.28.22,2.06,2.06,0,0,0-.35.29l-.29.3c-.06.07-.13.15-.27.29l-.56.57a.91.91,0,0,1-.27.2,1.64,1.64,0,0,0-.39.29.65.65,0,0,1-.25.16,1,1,0,0,0-.45.27l-.29.28-.29.28a1,1,0,0,0-.26.51.36.36,0,0,1-.13.25,1.33,1.33,0,0,0-.28.4.9.9,0,0,1-.19.27.67.67,0,0,1-.26.17,1.37,1.37,0,0,0-.43.28.43.43,0,0,1-.25.14,1,1,0,0,0-.48.27,2.14,2.14,0,0,1-.28.24,2,2,0,0,0-.33.28l-.29.3c-.06.08-.13.15-.26.29a1,1,0,0,0-.28.41.72.72,0,0,1-.18.26,2.42,2.42,0,0,1-.28.25,2.68,2.68,0,0,0-.32.28l-.28.25a2.23,2.23,0,0,0-.33.29,1.45,1.45,0,0,0-.29.37,1,1,0,0,1-.47.46,1.65,1.65,0,0,0-.4.29,3.11,3.11,0,0,1-.28.24,2.79,2.79,0,0,0-.34.29.75.75,0,0,0-.17.68c0,.16,0,.21,0,.26a.39.39,0,0,1-.26.12,1,1,0,0,0-.5.26,1,1,0,0,0-.26.5.47.47,0,0,1-.13.25,1.14,1.14,0,0,1-.27.2,1.28,1.28,0,0,0-.4.29.42.42,0,0,1-.25.12.85.85,0,0,0-.51.25,2.2,2.2,0,0,1-.29.25,4.17,4.17,0,0,0-.33.29A.76.76,0,0,0,27,30c0,.15,0,.19-.05.25a.37.37,0,0,1-.25.12.87.87,0,0,0-.52.25.5.5,0,0,1-.26.16,1,1,0,0,0-.46.28l-.28.27-.31.29-.28.26a1.78,1.78,0,0,0-.32.29.76.76,0,0,0-.19.66c0,.16,0,.21,0,.27a1.24,1.24,0,0,1-.36.27l-.16.08-.11-.1A1.56,1.56,0,0,0,22.9,33a1.35,1.35,0,0,0-.49,0,1.07,1.07,0,0,1-.31,0,2.7,2.7,0,0,0-.49,0h-.28l-.26,0-.21,0a.13.13,0,0,0,0-.06,1,1,0,0,1,0-.21l.13-.08a.74.74,0,0,0,.42-.47,2.44,2.44,0,0,0,0-.54c0-.1,0-.2,0-.3a1.61,1.61,0,0,0-.09-.54c0-.1-.05-.19-.06-.29a1,1,0,0,0-.28-.5.85.85,0,0,1-.16-.22,1.12,1.12,0,0,1,.08-.28.8.8,0,0,0,.06-.72,3.48,3.48,0,0,0-.51-.58l-.1-.09a1.11,1.11,0,0,0-.55-.28l-.26-.1a1.92,1.92,0,0,1-.23-.2,1.13,1.13,0,0,0-.48-.35,3.24,3.24,0,0,0-.68-.12l-.19,0a1.63,1.63,0,0,1-.3-.07,1.75,1.75,0,0,0-.57-.08,1,1,0,0,0-.56.31,1.19,1.19,0,0,1-.22.17,3.88,3.88,0,0,1-.42,0,1.37,1.37,0,0,0-.28,0l0-.09a1.59,1.59,0,0,0,.07-.71,4.19,4.19,0,0,0-.24-.94,1.77,1.77,0,0,0-.4-.54l-.16-.15.13-.1a1.17,1.17,0,0,0,.36-.25c.15-.15.22-.23.29-.31A2.64,2.64,0,0,1,16,24l.28-.3.27-.29.29-.26a3.33,3.33,0,0,0,.6-.62,1.9,1.9,0,0,1,.23-.28.39.39,0,0,1,.26-.12.92.92,0,0,0,.5-.26,1,1,0,0,0,.27-.48.48.48,0,0,1,.14-.26l.28-.28.29-.28a.5.5,0,0,1,.26-.15,1.09,1.09,0,0,0,.46-.27,1.64,1.64,0,0,0,.29-.39.79.79,0,0,1,.19-.27,1.64,1.64,0,0,0,.29-.38,1.24,1.24,0,0,1,.21-.27,1,1,0,0,1,.27-.21,1.36,1.36,0,0,0,.37-.28c.15-.15.22-.23.29-.31l.26-.28.29-.3.27-.28a.44.44,0,0,1,.25-.13.78.78,0,0,0,.49-.26.72.72,0,0,0,.17-.68c0-.16,0-.21,0-.26l.28-.29.28-.28.28-.28.3-.29a2.14,2.14,0,0,1,.28-.24,2.5,2.5,0,0,0,.34-.28,2.71,2.71,0,0,0,.29-.35,1.77,1.77,0,0,1,.23-.28c.07-.07.13-.07.25-.08a.81.81,0,0,0,.58-.23.79.79,0,0,0,.23-.57.31.31,0,0,1,.09-.25.57.57,0,0,1,.26-.16,1.25,1.25,0,0,0,.45-.28,1.86,1.86,0,0,0,.28-.36,1.14,1.14,0,0,1,.22-.28.32.32,0,0,1,.25-.09.86.86,0,0,0,.56-.24.84.84,0,0,0,.26-.52.39.39,0,0,1,.12-.25.7.7,0,0,1,.27-.17,1.21,1.21,0,0,0,.43-.28.71.71,0,0,1,.27-.2A1.45,1.45,0,0,0,31,9.26a2.14,2.14,0,0,0,.29-.33,3.71,3.71,0,0,1,.25-.28,1,1,0,0,1,.27-.19,1.13,1.13,0,0,0,.4-.29.85.85,0,0,0,.26-.51.39.39,0,0,1,.12-.26,3.28,3.28,0,0,0,.3-.33,2,2,0,0,1,.24-.29.43.43,0,0,1,.26-.11.84.84,0,0,0,.53-.25,1.53,1.53,0,0,0,.18-1.51,1.34,1.34,0,0,0-1-.73A.28.28,0,0,0,32.75,4h0c-.29,0-.36.36-.41.59s-.05.2-.06.22-.11.08-.24.08a.8.8,0,0,0-.57.23.85.85,0,0,0-.26.48.48.48,0,0,1-.13.24.35.35,0,0,1-.24.12.82.82,0,0,0-.51.25,2.81,2.81,0,0,0-.28.31c-.06.07-.12.14-.25.27a1.33,1.33,0,0,0-.28.4.72.72,0,0,1-.18.26.44.44,0,0,1-.25.15,1,1,0,0,0-.44.27,2.64,2.64,0,0,1-.27.22,1.53,1.53,0,0,0-.35.28.75.75,0,0,0-.17.68c0,.17,0,.21,0,.26a.32.32,0,0,1-.24.09A.79.79,0,0,0,27,9.6a.64.64,0,0,1-.26.18,1.33,1.33,0,0,0-.4.28l-.28.29-.27.27a.75.75,0,0,0-.22.6c0,.13,0,.18-.06.24s-.11.07-.25.06a.79.79,0,0,0-.61.2.76.76,0,0,0-.2.62c0,.13,0,.18-.06.24a.52.52,0,0,1-.25.15,1,1,0,0,0-.45.27,1,1,0,0,0-.27.44.55.55,0,0,1-.16.25c0,.05-.09.05-.25,0a.71.71,0,0,0-.66.17.75.75,0,0,0-.19.64c0,.15,0,.19,0,.24s-.1.06-.24.06a.73.73,0,0,0-.62.2.71.71,0,0,0-.18.64c0,.15,0,.19,0,.24l-.28.28-.29.27c-.06.07-.12.07-.24.07a.7.7,0,0,0-.6.21,1.91,1.91,0,0,0-.28.34,2.08,2.08,0,0,1-.23.27,2.79,2.79,0,0,0-.29.34,1.83,1.83,0,0,1-.23.27,4.13,4.13,0,0,0-.28.32,3.11,3.11,0,0,1-.24.28.78.78,0,0,0-.25.51.35.35,0,0,1-.12.24.48.48,0,0,1-.25.15,1,1,0,0,0-.45.27l-.56.56c-.07.07-.12.07-.25.07a.79.79,0,0,0-.58.22.72.72,0,0,0-.14.72c0,.17,0,.23,0,.27s-.09.05-.25,0a.71.71,0,0,0-.66.18.93.93,0,0,0-.27.47.46.46,0,0,1-.14.25,1.24,1.24,0,0,1-.27.21,2.06,2.06,0,0,0-.35.29.74.74,0,0,1-.27.18,1.46,1.46,0,0,0-.4.28,2.44,2.44,0,0,0-.28.35,1.7,1.7,0,0,1-.22.28l-.57.56-.27.26-.31.31a.55.55,0,0,0-.1.45s0,.09,0,.09a2.6,2.6,0,0,0-.12.41,1.79,1.79,0,0,1-.11.34c0,.09-.07.12-.18.17a.8.8,0,0,0-.43.44.85.85,0,0,0,0,.56.36.36,0,0,1,0,.27.89.89,0,0,0,0,.55.42.42,0,0,1,0,.27c-.07.19-.1.28-.13.38s-.06.18-.13.36-.07.08-.21.13a.71.71,0,0,0-.53.42,1,1,0,0,0-.06.52.51.51,0,0,1,0,.29.35.35,0,0,1-.18.2.78.78,0,0,0-.38.44,1,1,0,0,0-.06.51.43.43,0,0,1,0,.29,1,1,0,0,0,0,.56.36.36,0,0,1,0,.27c0,.11-.09.13-.18.19a.8.8,0,0,0-.37.44,2.31,2.31,0,0,0-.12.44,1,1,0,0,1-.08.33c-.07.18-.1.27-.14.36l-.14.38a1.35,1.35,0,0,0-.1.47.67.67,0,0,1-.06.31c0,.09-.07.11-.19.17a.76.76,0,0,0-.45.44,1.92,1.92,0,0,0-.12.43,1.17,1.17,0,0,1-.08.33.73.73,0,0,0,0,.59.34.34,0,0,1,0,.26,1.08,1.08,0,0,0-.06.53.43.43,0,0,1,0,.29,2.32,2.32,0,0,1-.16.32,2.85,2.85,0,0,0-.19.39,1.43,1.43,0,0,1-.15.34c0,.1-.09.19-.17.39s-.08.12-.18.18a.76.76,0,0,0-.42.44.78.78,0,0,0,0,.61.3.3,0,0,1,0,.26l0,.09c-.13.34-.3.81,0,1.14a1.76,1.76,0,0,0,1.12.49.92.92,0,0,0,.28,0A.73.73,0,0,0,7,43.27c.06-.12.08-.16.17-.19a.42.42,0,0,1,.27,0,.78.78,0,0,0,.56,0,.72.72,0,0,0,.43-.51c0-.15.07-.19.14-.21s.1,0,.23.08a.74.74,0,0,0,.68.12.86.86,0,0,0,.44-.42c0-.1.07-.14.17-.18l.34-.11a2.6,2.6,0,0,0,.41-.12.4.4,0,0,1,.28,0,1,1,0,0,0,.54,0,.93.93,0,0,0,.43-.33.39.39,0,0,1,.22-.17.36.36,0,0,1,.27,0,.94.94,0,0,0,.56,0,2.14,2.14,0,0,1,.33-.09,2.08,2.08,0,0,0,.43-.12,2.85,2.85,0,0,0,.39-.19,1.85,1.85,0,0,1,.32-.16A.73.73,0,0,0,15,40c.05-.14.07-.18.14-.21a.74.74,0,0,1,.3,0,1,1,0,0,0,.5-.08,1.56,1.56,0,0,0,.39-.19,2.55,2.55,0,0,1,.32-.15c.08,0,.13,0,.25,0a.76.76,0,0,0,.63,0,1.17,1.17,0,0,1,.33-.08,1.52,1.52,0,0,0,.44-.11.69.69,0,0,0,.43-.55c.05-.15.07-.19.13-.22a1.56,1.56,0,0,0,.39-.19,2.55,2.55,0,0,1,.32-.15c.06,0,.09,0,.24.09a.74.74,0,0,0,.69.13.86.86,0,0,0,.43-.31.58.58,0,0,1,.53-.2A1,1,0,0,0,22,37.8a1.18,1.18,0,0,0,.41-.24,1.08,1.08,0,0,1,.27-.15.89.89,0,0,0,.36-.25l.08-.08a1.3,1.3,0,0,0,.28-.38,1,1,0,0,1,.2-.26.44.44,0,0,1,.25-.15,1,1,0,0,0,.45-.27l.28-.3c.06-.07.12-.14.25-.27a.84.84,0,0,0,.25-.52.36.36,0,0,1,.11-.24c.07-.08.12-.08.24-.09a.77.77,0,0,0,.56-.23.73.73,0,0,0,.2-.61c0-.13,0-.18.07-.24s.11-.07.24-.07a.75.75,0,0,0,.59-.21c.15-.15.22-.23.29-.31a1.34,1.34,0,0,1,.25-.28,1.85,1.85,0,0,0,.28-.38.74.74,0,0,1,.19-.27.65.65,0,0,1,.25-.16,1.15,1.15,0,0,0,.43-.27,4.13,4.13,0,0,0,.28-.32,2.21,2.21,0,0,1,.24-.27.55.55,0,0,1,.25-.16,1,1,0,0,0,.45-.27.71.71,0,0,0,.18-.64c0-.15,0-.19,0-.25a1.51,1.51,0,0,1,.27-.2,1.17,1.17,0,0,0,.37-.28,1.33,1.33,0,0,0,.28-.4.72.72,0,0,1,.18-.26.38.38,0,0,1,.25-.11.87.87,0,0,0,.52-.24.44.44,0,0,1,.25-.15,1.05,1.05,0,0,0,.44-.27.75.75,0,0,0,.22-.58c0-.13,0-.18.07-.24a1.33,1.33,0,0,0,.28-.4.72.72,0,0,1,.18-.26.38.38,0,0,1,.24-.11.8.8,0,0,0,.51-.25,2.18,2.18,0,0,0,.28-.3l.26-.27a.91.91,0,0,0,.26-.48.43.43,0,0,1,.14-.25.35.35,0,0,1,.24-.12,1,1,0,0,0,.5-.26,1,1,0,0,1,.26-.2,1.3,1.3,0,0,0,.38-.28c.15-.15.21-.22.28-.3l.26-.28a1.36,1.36,0,0,0,.28-.37,1,1,0,0,1,.2-.27.52.52,0,0,1,.25-.15,1,1,0,0,0,.45-.27.84.84,0,0,0,.25-.53.31.31,0,0,1,.1-.24.52.52,0,0,1,.25-.15,1.09,1.09,0,0,0,.46-.27.67.67,0,0,1,.26-.17,1.23,1.23,0,0,0,.41-.28.7.7,0,0,0,.18-.65c0-.16,0-.2,0-.25a.33.33,0,0,1,.25-.1.84.84,0,0,0,.77-.8c0-.11,0-.17.09-.24s.1-.07.25-.06a.73.73,0,0,0,.62-.2.75.75,0,0,0,.17-.68c0-.16,0-.2,0-.25a.64.64,0,0,1,.26-.18,1.06,1.06,0,0,0,.42-.28.28.28,0,0,1,.24-.08.78.78,0,0,0,.55-.21A1.59,1.59,0,0,0,44.38,15.12ZM10.53,34a.6.6,0,0,1,0-.31.37.37,0,0,1,.18-.21.84.84,0,0,0,.38-.45,1,1,0,0,0,.06-.53.6.6,0,0,1,0-.31.85.85,0,0,0,0-.56.42.42,0,0,1,0-.29.35.35,0,0,1,.18-.21.88.88,0,0,0,.38-.45,1.65,1.65,0,0,0,.11-.45,1.37,1.37,0,0,1,.09-.35c.07-.19.11-.28.14-.37l.15-.39a1.23,1.23,0,0,0,.1-.49,1.08,1.08,0,0,1,.07-.33c0-.09.08-.12.2-.18a.78.78,0,0,0,.45-.45,1.14,1.14,0,0,0,.08-.45.32.32,0,0,1,.09-.25l.06-.09a.52.52,0,0,0,.16.06l-.09.14a1,1,0,0,0-.18.44,1.56,1.56,0,0,0,.09.45.92.92,0,0,1,.05.29.68.68,0,0,1-.22.28.89.89,0,0,0-.26.35,1.34,1.34,0,0,0,.48,1.45,1.19,1.19,0,0,0,1.4-.14l.16,0a1.77,1.77,0,0,0,.52-.14,1.93,1.93,0,0,1,.31-.09l.34-.09a.85.85,0,0,0,.41-.46,2.17,2.17,0,0,1,.12-.23.9.9,0,0,1,.29.11,1,1,0,0,0,.46.14.78.78,0,0,1,.33.12l.27.12a1.06,1.06,0,0,1,.47.27,1,1,0,0,0,.42.23l.24.1a.92.92,0,0,1-.11.23,1,1,0,0,0-.18.52.82.82,0,0,0,.22.49,1.08,1.08,0,0,1,.14.25.78.78,0,0,1-.15.25,1.07,1.07,0,0,0-.21.36,1.8,1.8,0,0,0-.06.45.94.94,0,0,1,0,.26c0,.06-.24.1-.35.12s-.3.06-.38.17c-.37.47.09,1.12.34,1.47s.69,1,1.25.75a1.2,1.2,0,0,0,.52-.42.82.82,0,0,1,.21-.21,3.81,3.81,0,0,1,.89,0,.54.54,0,0,1,.3.13l.07,0,0,0-.07,0a2.25,2.25,0,0,1-.56.28l-.11,0a2.81,2.81,0,0,0-.4.18,2.49,2.49,0,0,1-.35.16.92.92,0,0,0-.45.36.39.39,0,0,1-.21.19.58.58,0,0,1-.31,0,1,1,0,0,0-.53.07l-.76.29a.33.33,0,0,1-.27,0,.81.81,0,0,0-.63,0,.72.72,0,0,0-.43.6c0,.18-.06.23-.12.25s-.12,0-.26-.07a.75.75,0,0,0-.68-.1,1,1,0,0,0-.45.32.46.46,0,0,1-.24.18,1.94,1.94,0,0,1-.34.09,1.68,1.68,0,0,0-.45.12,1,1,0,0,1-.33.06,1.44,1.44,0,0,0-.49.1,2.84,2.84,0,0,0-.42.2,1.44,1.44,0,0,1-.32.17,1,1,0,0,0-.38.23c-.07.06-.07.06-.19,0s-.08,0-.09-.06a1,1,0,0,0-.22-.36.8.8,0,0,0-.44-.25.57.57,0,0,1-.22-.13,1.91,1.91,0,0,0-.31-.27,1.83,1.83,0,0,1-.25-.22c-.06,0-.06-.09-.06-.21a.74.74,0,0,0-.2-.57.83.83,0,0,0-.55-.21s-.1,0-.1,0a1,1,0,0,1,0-.72,3.32,3.32,0,0,0,.14-.39c0-.09.07-.19.14-.37s.07-.1.22-.15a.77.77,0,0,0,.53-.45A1,1,0,0,0,10.53,34Z"/></svg>