<svg id="Layer_1" data-name="Layer 1" xmlns="http://www.w3.org/2000/svg" viewBox="0 0 48 48"><defs><style>.cls-1{fill:#5092e1;}</style></defs><title>Artboard 3</title><path class="cls-1" d="M21.69,30.81a2,2,0,0,0,.28.54l.08.12a.34.34,0,0,1,0,.16.66.66,0,0,0,0,.53.79.79,0,0,1,0,.27,2.62,2.62,0,0,0,0,.38.76.76,0,0,0,.33.61c.13.1.16.14.16.22a.37.37,0,0,1-.11.27.81.81,0,0,0-.21.56,2.2,2.2,0,0,0,.31,1.06,1.12,1.12,0,0,0,.64.44l.27.11.1.06a1.56,1.56,0,0,0,.83.29,1.59,1.59,0,0,0,.84-.29l.09-.06a1.12,1.12,0,0,0,.48-.57l.09-.17.08-.12a1.34,1.34,0,0,0,.25-.75.69.69,0,0,1,.07-.32,1.28,1.28,0,0,0,.1-.51.93.93,0,0,0-.18-.55.36.36,0,0,1-.1-.27.36.36,0,0,1,.12-.27,1,1,0,0,0,.24-.4l.11-.08a1.18,1.18,0,0,0,.43-.38A.73.73,0,0,0,27,31a.8.8,0,0,1-.07-.25s.1-.12.15-.17a.8.8,0,0,0,.32-.55,1,1,0,0,0-.26-.61.83.83,0,0,1-.15-.24l-.05-.16a2,2,0,0,0-.27-.64,1,1,0,0,1-.08-.31.89.89,0,0,0-.3-.65.82.82,0,0,0-.72,0,1.08,1.08,0,0,1-.33,0,1,1,0,0,1-.23-.17,1,1,0,0,0-.61-.31.9.9,0,0,0-.61.33,1,1,0,0,1-.23.17l-.15.05a1.91,1.91,0,0,0-.65.28,1.1,1.1,0,0,0-.35.48,1,1,0,0,1-.13.23,1,1,0,0,1-.18.18,1.16,1.16,0,0,0-.36.49l0,.09a2.35,2.35,0,0,0-.16.78,1.7,1.7,0,0,0,.13.58A1.09,1.09,0,0,1,21.69,30.81Z"/><path class="cls-1" d="M39.87,31.85a2.29,2.29,0,0,0,0-.44,2.45,2.45,0,0,1,0-.37,2.1,2.1,0,0,0-.05-.46.94.94,0,0,1,0-.34.5.5,0,0,1,.08-.29,1.08,1.08,0,0,0,.12-.51.83.83,0,0,0-.18-.54.39.39,0,0,1-.09-.26,1.49,1.49,0,0,0-.07-.47,1.37,1.37,0,0,1,0-.34.3.3,0,0,1,.11-.23.8.8,0,0,0,.24-.57.89.89,0,0,0-.18-.54.4.4,0,0,1-.1-.26.89.89,0,0,0-.18-.55.36.36,0,0,1-.09-.26.35.35,0,0,1,.09-.25.89.89,0,0,0,.19-.55.65.65,0,0,1,.07-.31,1.11,1.11,0,0,0,.1-.5V23.4c0-.1,0-.2,0-.4a1,1,0,0,0-.32-.61,1,1,0,0,1-.17-.23.62.62,0,0,1,0-.3.9.9,0,0,0-.08-.68,1.75,1.75,0,0,0-.55-.43l-.22-.14a1.31,1.31,0,0,0-.6-.21,1.26,1.26,0,0,1-.28,0c-.08,0-.16-.08-.24-.12A1.28,1.28,0,0,0,36.7,20a1.23,1.23,0,0,0-.5.11.48.48,0,0,1-.29.07.37.37,0,0,1-.25-.09.83.83,0,0,0-.54-.19h-.41a3,3,0,0,1-.38,0,1.31,1.31,0,0,1-.34,0,2.07,2.07,0,0,0-.45,0A1,1,0,0,0,33,20a.55.55,0,0,1-.28.07.47.47,0,0,1-.28-.08,1,1,0,0,0-.51-.13.83.83,0,0,0-.54.18.42.42,0,0,1-.25.09,2.29,2.29,0,0,0-.44,0,1.54,1.54,0,0,1-.36,0,1.5,1.5,0,0,1-.35,0,3.59,3.59,0,0,0-.44,0,1,1,0,0,0-.52.14.43.43,0,0,1-.27.08.54.54,0,0,1-.27-.07,1,1,0,0,0-.52-.14.45.45,0,0,1-.26-.09.89.89,0,0,0-.53-.17,2.41,2.41,0,0,1-.36,0,3.39,3.39,0,0,0-.43,0,1.54,1.54,0,0,0-.46.06,1.28,1.28,0,0,1-.33,0,1.09,1.09,0,0,0-.49.1.74.74,0,0,1-.3.05,1.42,1.42,0,0,0-.46.07,1,1,0,0,1-.33.05,1.49,1.49,0,0,0-.47.07.91.91,0,0,1-.33.05,2.11,2.11,0,0,0-.44,0,1.27,1.27,0,0,1-.35,0c-.08,0-.12,0-.21-.13a.74.74,0,0,0-.58-.29.78.78,0,0,0-.57.26c-.1.09-.13.13-.22.13s-.11,0-.21-.15a.73.73,0,0,0-.59-.32h-.79a.77.77,0,0,0-.56.24.3.3,0,0,1-.23.11h-.8a1.09,1.09,0,0,0-.5.11.6.6,0,0,1-.3.07.46.46,0,0,1-.27-.09.9.9,0,0,0-.53-.16,1,1,0,0,0-.5.13l-.17.06-.13-.24a3.23,3.23,0,0,1-.24-.5.87.87,0,0,1,0-.25,1.09,1.09,0,0,0,0-.57,3.38,3.38,0,0,1-.08-.34c0-.14-.06-.28-.1-.42a1.07,1.07,0,0,0-.34-.44.84.84,0,0,1-.19-.2,1.19,1.19,0,0,1,0-.34,1.26,1.26,0,0,0,0-.47,1.17,1.17,0,0,0-.29-.42c.17,0,.21-.06.26-.13l.07-.1,0-.12a2.63,2.63,0,0,1-.07-.42c0-.12,0-.25,0-.36a1,1,0,0,0-.37-.5c-.07,0-.19-.16-.2-.21a.76.76,0,0,1,.1-.29,1.14,1.14,0,0,0,.17-.52,2.57,2.57,0,0,0-.06-.4,1.84,1.84,0,0,1,0-.39,4,4,0,0,1,.08-.46c0-.1.05-.2.07-.31a1.57,1.57,0,0,0,0-.49.81.81,0,0,1,0-.34c0-.06.12-.15.2-.22a1,1,0,0,0,.36-.43,3.57,3.57,0,0,0,.1-.35,1.63,1.63,0,0,1,.13-.39,2.44,2.44,0,0,0,.12-.42A1,1,0,0,1,14.94,9a.69.69,0,0,1,.25-.22,1.34,1.34,0,0,0,.36-.32,1,1,0,0,0,.14-.57.8.8,0,0,1,0-.3A2.16,2.16,0,0,0,16,7.23a2.19,2.19,0,0,1,.25-.33.89.89,0,0,1,.3-.09,1.07,1.07,0,0,0,.53-.19.89.89,0,0,1,.3-.09,1.25,1.25,0,0,0,.47-.16A1.14,1.14,0,0,0,18.16,6a.71.71,0,0,1,.19-.24,1.43,1.43,0,0,0,.38-.35A.84.84,0,0,1,19,5.16a.72.72,0,0,1,.33,0,1.31,1.31,0,0,0,.52,0,1,1,0,0,1,.32,0,1.08,1.08,0,0,0,.51,0,1,1,0,0,0,.48-.32.81.81,0,0,1,.23-.18,1.18,1.18,0,0,1,.35,0,1.41,1.41,0,0,0,.45.07l.4.06a2.32,2.32,0,0,0,.38.07,1.15,1.15,0,0,0,.55-.17.67.67,0,0,1,.28-.11,3.62,3.62,0,0,1,.47.13l.31.09a1.75,1.75,0,0,0,.45,0,1.08,1.08,0,0,1,.38,0,.7.7,0,0,1,.22.23,1.22,1.22,0,0,0,.4.38,1.72,1.72,0,0,0,.48.1,1,1,0,0,1,.34.06A.94.94,0,0,1,27,6a1,1,0,0,0,.31.49,1.45,1.45,0,0,0,.45.19.74.74,0,0,1,.31.12,1,1,0,0,1,.19.29,1.51,1.51,0,0,0,.25.39,1.78,1.78,0,0,0,.37.26,1.09,1.09,0,0,1,.28.22,3,3,0,0,1,.28.41l.15.25a1.48,1.48,0,0,1,.18.38l.15.34a.65.65,0,0,1,.06.33,1.62,1.62,0,0,0,.09.46,1.1,1.1,0,0,0,.34.4l.11.1v.18a.92.92,0,0,1,0,.19,2.08,2.08,0,0,0,.08.61,1.69,1.69,0,0,0,.21.4,1.24,1.24,0,0,1,.17.32,1.1,1.1,0,0,1,0,.33,1.39,1.39,0,0,0,0,.49c.05.15.11.29.17.43a2.58,2.58,0,0,1,.13.31,1,1,0,0,1,.06.36,1.24,1.24,0,0,0,.06.41,1.76,1.76,0,0,0,1.06,1c.45.12.88-.36,1.16-.68.15-.16.6-.69.42-1.17a1.76,1.76,0,0,0-.17-.36,1.09,1.09,0,0,1-.15-.35l-.09-.34a3.31,3.31,0,0,0-.12-.42,1.11,1.11,0,0,0-.28-.44,1.51,1.51,0,0,1-.18-.25,1,1,0,0,1,0-.33,1,1,0,0,0,0-.52,2.68,2.68,0,0,1-.12-.52,1.49,1.49,0,0,0,0-.22.21.21,0,0,0-.2-.18s0-.1,0-.15a1.67,1.67,0,0,0-.11-.48L32.57,9a2.57,2.57,0,0,0-.15-.47A1,1,0,0,0,32,8.14c-.09-.06-.2-.12-.23-.18a1.6,1.6,0,0,0-.31-.37c-.07-.08-.14-.15-.2-.23A4.08,4.08,0,0,0,30.94,7a2,2,0,0,1-.19-.22,3.55,3.55,0,0,0-.33-.34L30.2,6.2a.71.71,0,0,1-.09-.27.89.89,0,0,0-.22-.53,1.3,1.3,0,0,0-.43-.26A1.3,1.3,0,0,1,29.19,5,1,1,0,0,1,29,4.74a1.36,1.36,0,0,0-.34-.39,3,3,0,0,0-.43-.24L28,4l-.19-.12a4.91,4.91,0,0,0-.5-.28L27,3.41a4,4,0,0,0-.46-.23.88.88,0,0,0-.6,0c-.09,0-.22.07-.27,0A.83.83,0,0,1,25.54,3c-.11-.21-.23-.43-.47-.49a1.08,1.08,0,0,0-.54,0,.84.84,0,0,1-.3,0A.78.78,0,0,1,24,2.44a1.16,1.16,0,0,0-.51-.25,3.6,3.6,0,0,0-.66,0,3,3,0,0,1-.42,0,.92.92,0,0,0-.55.26.87.87,0,0,1-.25.15h-.31a4.26,4.26,0,0,0-.5,0,1.41,1.41,0,0,0-.47.19A1.38,1.38,0,0,1,20,3a1,1,0,0,1-.3,0,1.32,1.32,0,0,0-.52,0l-.3.08a4.34,4.34,0,0,0-.48.14A3.09,3.09,0,0,0,18,3.5l-.27.16a2.73,2.73,0,0,0-.43.26L17,4.08a.79.79,0,0,1-.29,0,.88.88,0,0,0-.66.06l-.05,0c-.21.15-.44.3-.63.45a.84.84,0,0,0-.24.62.85.85,0,0,1-.06.29.76.76,0,0,1-.27.1,1.05,1.05,0,0,0-.52.25l-.41.49-.11.15a1.07,1.07,0,0,0-.19.52.92.92,0,0,1-.08.29,1.21,1.21,0,0,1-.21.24,2.37,2.37,0,0,0-.3.39,2.24,2.24,0,0,0-.19.46,1.82,1.82,0,0,1-.11.3,2.21,2.21,0,0,0-.13.47,2.38,2.38,0,0,1-.07.31,1.51,1.51,0,0,1-.15.28,2.24,2.24,0,0,0-.2.44,1.92,1.92,0,0,1-.15.27,1.33,1.33,0,0,0-.23.46,1,1,0,0,0,.06.55.71.71,0,0,1,.06.29.72.72,0,0,1-.17.22,1,1,0,0,0-.31.53,1.13,1.13,0,0,1-.06.32,2.74,2.74,0,0,0-.07.5.82.82,0,0,0,.31.57.81.81,0,0,1,.18.23.86.86,0,0,1-.11.26.9.9,0,0,0-.17.58,1,1,0,0,0,.27.49.93.93,0,0,1,.16.25c0,.1,0,.21.05.31a2.51,2.51,0,0,0,0,.27c-.2.06-.42.14-.35.4a.77.77,0,0,0,.37.34c.14.07.32.18.35.27a.91.91,0,0,1,0,.28,1.22,1.22,0,0,0,0,.57,1,1,0,0,0,.36.44c.08.07.19.16.2.22a1,1,0,0,1-.11.29.93.93,0,0,0-.15.64,1,1,0,0,0,.07.15,1.21,1.21,0,0,0-.48.06A.93.93,0,0,1,12,20a3,3,0,0,0-.95.12l-.23.06a2.51,2.51,0,0,0-.68.28A1.78,1.78,0,0,0,9.7,21a2.1,2.1,0,0,1-.15.22.88.88,0,0,0-.06.69.62.62,0,0,1,0,.29,1.89,1.89,0,0,1-.09.21,1.42,1.42,0,0,0-.16.59,2.07,2.07,0,0,0,.05.45,2.25,2.25,0,0,1,0,.35c0,.09,0,.12-.14.22a.77.77,0,0,0-.29.58.84.84,0,0,0,.21.56.34.34,0,0,1,.11.24c0,.21,0,.31,0,.41v.39a.85.85,0,0,1-.05.32,1.23,1.23,0,0,0-.09.48.91.91,0,0,0,.16.54.36.36,0,0,1,.09.26c0,.09,0,.13-.13.22A.76.76,0,0,0,9,28.6a1.11,1.11,0,0,0,.12.51.59.59,0,0,1,.07.29,1.52,1.52,0,0,0,.08.49.6.6,0,0,1,.06.31,1.31,1.31,0,0,1,0,.34,1.62,1.62,0,0,0-.05.46,1.28,1.28,0,0,0,.08.49.63.63,0,0,1,.06.31c0,.06,0,.1-.17.2a.73.73,0,0,0-.39.6,1.24,1.24,0,0,0,.09.49.85.85,0,0,1,.05.32,3.55,3.55,0,0,0,0,.43,1.64,1.64,0,0,1,0,.37,1.11,1.11,0,0,0,.12.51.5.5,0,0,1,.08.29,2.29,2.29,0,0,0,0,.44,2.8,2.8,0,0,1,0,.36,1.05,1.05,0,0,0,.11.5.66.66,0,0,1,.06.31,1.54,1.54,0,0,1,0,.36,2.29,2.29,0,0,0,0,.44.36.36,0,0,1-.11.25.79.79,0,0,0-.21.55,1.11,1.11,0,0,0,.1.5.66.66,0,0,1,.06.31,1,1,0,0,0,.14.52.5.5,0,0,1,.08.29.91.91,0,0,1-.05.33,1.57,1.57,0,0,0-.07.48.93.93,0,0,1-.07.29,1,1,0,0,0-.06.63.88.88,0,0,0,.51.46.72.72,0,0,1,.24.14.93.93,0,0,1,0,.31c0,.26,0,.54.23.7a1.77,1.77,0,0,0,.66.25l.26.07a2.36,2.36,0,0,0,.75.07H12a.35.35,0,0,1,.25.1.83.83,0,0,0,.54.19.72.72,0,0,0,.58-.3c.1-.11.14-.13.22-.13a1.28,1.28,0,0,1,.33,0,1.47,1.47,0,0,0,.46.07.89.89,0,0,0,.54-.18.39.39,0,0,1,.26-.09.59.59,0,0,1,.29.07,1.09,1.09,0,0,0,.5.11.36.36,0,0,1,.26.09.9.9,0,0,0,.54.17.66.66,0,0,1,.31.06,1.26,1.26,0,0,0,.48.08.73.73,0,0,0,.59-.33c.1-.12.14-.15.21-.15a2.38,2.38,0,0,1,.35,0,1.91,1.91,0,0,0,.45,0,1.24,1.24,0,0,0,.47-.08.85.85,0,0,1,.32,0,2.25,2.25,0,0,1,.35,0,2.15,2.15,0,0,0,.45,0,1.54,1.54,0,0,0,.46-.06.91.91,0,0,1,.33,0,2.73,2.73,0,0,1,.37,0,2.1,2.1,0,0,0,.43,0,.82.82,0,0,1,.32.06,1.4,1.4,0,0,0,.48.08,1.55,1.55,0,0,0,.47-.07.82.82,0,0,1,.32-.06.81.81,0,0,1,.31.06,1.19,1.19,0,0,0,.48.1.33.33,0,0,1,.25.1.86.86,0,0,0,.55.2h.8a.81.81,0,0,0,.55-.22.33.33,0,0,1,.24-.1,1.31,1.31,0,0,1,.34,0,2.1,2.1,0,0,0,.46,0,2.38,2.38,0,0,1,.35,0,1.51,1.51,0,0,0,.44.05h.8a.67.67,0,0,1,.32.06,1.45,1.45,0,0,0,.48.08.78.78,0,0,0,.57-.26c.1-.09.13-.12.23-.12a.46.46,0,0,1,.27.08,1,1,0,0,0,.53.15.4.4,0,0,1,.27.09,1,1,0,0,0,.52.15.76.76,0,0,0,.58-.28c.09-.09.13-.12.22-.12a1.26,1.26,0,0,0,.48-.08.85.85,0,0,1,.32,0,.5.5,0,0,1,.29.08,1,1,0,0,0,.51.13.34.34,0,0,1,.26.1.93.93,0,0,0,.55.18h.8a1.2,1.2,0,0,0,.64-.25,1.43,1.43,0,0,1,.26-.15,2.64,2.64,0,0,0,.78-.43,1,1,0,0,0,.32-.54.72.72,0,0,1,.1-.25,2.29,2.29,0,0,0,.39-.71,1,1,0,0,1,.23-.21c.19-.14.43-.32.43-.6a1.3,1.3,0,0,0-.09-.5.6.6,0,0,1-.07-.3,3.94,3.94,0,0,0,0-.43,3,3,0,0,1,0-.37.86.86,0,0,0-.19-.55.37.37,0,0,1-.1-.25.34.34,0,0,1,.11-.25.81.81,0,0,0,.22-.56.79.79,0,0,0-.27-.57c-.1-.1-.13-.13-.13-.23s0-.28,0-.38,0-.21,0-.41a.38.38,0,0,1,.09-.27,1,1,0,0,0,.15-.53,2.07,2.07,0,0,0,0-.45,1.54,1.54,0,0,1,0-.36.42.42,0,0,1,.08-.26.9.9,0,0,0,.16-.53.84.84,0,0,0-.19-.55.35.35,0,0,1-.1-.25c0-.08,0-.12.14-.22A.74.74,0,0,0,39.87,31.85Zm-28.46,9a1.55,1.55,0,0,0,0-.21.43.43,0,0,1,.08-.27.9.9,0,0,0,.16-.53.76.76,0,0,0-.28-.58c-.09-.1-.13-.13-.13-.22a1.57,1.57,0,0,0-.07-.48.85.85,0,0,1,0-.32.5.5,0,0,1,.08-.29,1,1,0,0,0,.13-.52.32.32,0,0,1,.1-.25.93.93,0,0,0,.18-.55v-.79a.91.91,0,0,0-.16-.54.39.39,0,0,1-.09-.26,3.73,3.73,0,0,0,0-.42c0-.1,0-.19,0-.39a.82.82,0,0,0-.18-.53.39.39,0,0,1-.09-.26c0-.2,0-.29,0-.39a3.66,3.66,0,0,0,0-.41c0-.07,0-.1.16-.2a.73.73,0,0,0,.37-.6,1.27,1.27,0,0,0-.1-.5.77.77,0,0,1-.06-.31,3.73,3.73,0,0,0,0-.42,3.18,3.18,0,0,1,0-.38.83.83,0,0,0-.2-.55.38.38,0,0,1,0-.5.78.78,0,0,0-.05-1.13c-.09-.1-.12-.13-.12-.23a3.67,3.67,0,0,1,0-.38c0-.11,0-.21,0-.42a.46.46,0,0,1,.08-.27.9.9,0,0,0,.16-.53,1.49,1.49,0,0,0-.05-.45,2.41,2.41,0,0,1,0-.36.4.4,0,0,1,.09-.27.9.9,0,0,0,.16-.53.84.84,0,0,0-.2-.56.37.37,0,0,1-.1-.25c0-.08,0-.12.14-.22a.77.77,0,0,0,.31-.59v-.09c0-.14,0-.14.06-.21s.15-.15.3-.15a.77.77,0,0,0,.57-.26c.09-.09.13-.12.22-.12a2.41,2.41,0,0,1,.36,0,2.11,2.11,0,0,0,.44,0,1,1,0,0,0,.49-.11.79.79,0,0,1,.3-.06.54.54,0,0,1,.29.07,1.11,1.11,0,0,0,.51.12,2.8,2.8,0,0,1,.36,0,3.55,3.55,0,0,0,.43,0,1.64,1.64,0,0,0,.45,0,2.13,2.13,0,0,1,.35,0,2.24,2.24,0,0,0,.43,0l.36,0c.07,0,.11,0,.21.15a.73.73,0,0,0,.59.33h.8a.75.75,0,0,0,.59-.33c.1-.13.13-.16.2-.16a.32.32,0,0,1,.24.11.84.84,0,0,0,.56.21h.79a.83.83,0,0,0,.54-.18.45.45,0,0,1,.26-.09.94.94,0,0,1,.34.05,2.1,2.1,0,0,0,.46,0,2.07,2.07,0,0,0,.45,0,1.31,1.31,0,0,1,.34,0,1.2,1.2,0,0,0,.47-.08,1.12,1.12,0,0,1,.32-.05,1.33,1.33,0,0,1,.35,0,1.49,1.49,0,0,0,.45.05.6.6,0,0,1,.3.07,1.05,1.05,0,0,0,.5.11.85.85,0,0,0,.54-.19.36.36,0,0,1,.25-.1c.09,0,.13,0,.22.13a.79.79,0,0,0,.58.26.91.91,0,0,1,.33.05,2,2,0,0,0,.46.06.76.76,0,0,0,.59-.32c.1-.12.14-.15.21-.15s.13,0,.23.12a.78.78,0,0,0,.57.25.83.83,0,0,0,.54-.18.35.35,0,0,1,.26-.1,2.25,2.25,0,0,1,.35,0,2.15,2.15,0,0,0,.45,0c.08,0,.12,0,.21.13a.75.75,0,0,0,.58.29.74.74,0,0,0,.6-.34c.1-.12.13-.15.2-.15a.41.41,0,0,1,.26.09,1,1,0,0,0,.54.17.81.81,0,0,0,.56-.22.3.3,0,0,1,.24-.11c.07,0,.11,0,.21.16a.73.73,0,0,0,.6.36,1.06,1.06,0,0,0,.5-.12.66.66,0,0,1,.3-.07c.07,0,.09,0,.18.13l.12.12.1.1c.11.1.12.12.12.2a3.78,3.78,0,0,1,0,.38,3.73,3.73,0,0,0,0,.42.91.91,0,0,1,0,.33,1.54,1.54,0,0,0,0,.95.82.82,0,0,1,.06.32.74.74,0,0,0,.29.58c.1.1.13.13.13.22a.87.87,0,0,1-.05.33,1.55,1.55,0,0,0-.07.47,2.15,2.15,0,0,0,0,.45,1.33,1.33,0,0,1,0,.35c0,.09,0,.12-.14.22a.74.74,0,0,0-.3.58.84.84,0,0,0,.22.56.33.33,0,0,1,.1.24c0,.21,0,.31,0,.41s0,.2,0,.39a.7.7,0,0,1-.06.32,1.19,1.19,0,0,0-.09.48.89.89,0,0,0,.17.53.46.46,0,0,1,.09.27c0,.09,0,.13-.13.22a.78.78,0,0,0-.28.58,1.1,1.1,0,0,0,.11.51.6.6,0,0,1,.07.3,1.23,1.23,0,0,0,.09.48.82.82,0,0,1,.06.32,1.31,1.31,0,0,1,0,.34,1.54,1.54,0,0,0-.06.46,1.24,1.24,0,0,0,.09.49.81.81,0,0,1,.06.31c0,.07,0,.1-.18.2a.74.74,0,0,0-.38.61,1.5,1.5,0,0,0,.08.48.82.82,0,0,1,.06.32,2.29,2.29,0,0,0,0,.44,2.41,2.41,0,0,1,0,.36,1,1,0,0,0,.12.51.6.6,0,0,1,.07.3,3.59,3.59,0,0,0,0,.44,2.45,2.45,0,0,1,0,.37,1.27,1.27,0,0,0,.1.5.65.65,0,0,1,.07.31,1.24,1.24,0,0,1-.31.6,1.17,1.17,0,0,1-.31,0,1.39,1.39,0,0,0-.8.06.61.61,0,0,1-.3.06,1,1,0,0,0-.52.14.49.49,0,0,1-.28.08.91.91,0,0,1-.33,0,1.56,1.56,0,0,0-.47-.06.37.37,0,0,1-.25-.1.83.83,0,0,0-.54-.18.73.73,0,0,0-.57.27c-.1.09-.13.12-.23.12s-.09,0-.19-.16a.73.73,0,0,0-.6-.37,1.26,1.26,0,0,0-.48.08.66.66,0,0,1-.31.06,1.49,1.49,0,0,0-.45,0,2.38,2.38,0,0,1-.35,0,.33.33,0,0,1-.25-.1.86.86,0,0,0-.55-.19.74.74,0,0,0-.58.3c-.1.11-.13.14-.21.14a.87.87,0,0,1-.33,0A1.62,1.62,0,0,0,28,41.3a.9.9,0,0,0-.54.17.36.36,0,0,1-.26.1.59.59,0,0,1-.29-.07,1.06,1.06,0,0,0-.5-.12.4.4,0,0,1-.26-.08.88.88,0,0,0-.54-.17.81.81,0,0,1-.31-.06,1.23,1.23,0,0,0-.48-.09.73.73,0,0,0-.59.33c-.1.12-.13.15-.21.15a1.5,1.5,0,0,1-.35,0,2.11,2.11,0,0,0-.44,0,1.57,1.57,0,0,0-.48.07.85.85,0,0,1-.32,0,1.5,1.5,0,0,1-.35,0,2.11,2.11,0,0,0-.44,0,1.56,1.56,0,0,0-.47.06.87.87,0,0,1-.33,0,1.54,1.54,0,0,1-.36,0,3.59,3.59,0,0,0-.44,0,.83.83,0,0,1-.31-.05,1.23,1.23,0,0,0-.48-.09,1.26,1.26,0,0,0-.48.08.85.85,0,0,1-.32,0,.77.77,0,0,1-.31-.06,1.29,1.29,0,0,0-.49-.09.37.37,0,0,1-.25-.1.81.81,0,0,0-.55-.2H16a.81.81,0,0,0-.55.21.34.34,0,0,1-.24.11,1.46,1.46,0,0,1-.35,0,1.46,1.46,0,0,0-.45-.06,1.54,1.54,0,0,1-.36,0,2.15,2.15,0,0,0-.45,0h-.8a.85.85,0,0,1-.32-.05,1.26,1.26,0,0,0-.48-.08,1.22,1.22,0,0,0-.38.07l-.2.07A1,1,0,0,1,11.41,40.86Z"/></svg>